<svg xmlns="http://www.w3.org/2000/svg" viewBox="0 0 640 480" role="img" aria-label="Brocheta Mixta">
  <defs>
    <linearGradient id="bg-brocheta-mixta" x1="0%" y1="0%" x2="100%" y2="100%">
      <stop offset="0%" stop-color="#22170d">
        <animate attributeName="stop-color" values="#22170d;#895129;#22170d" dur="7s" repeatCount="indefinite"/>
      </stop>
      <stop offset="100%" stop-color="#895129">
        <animate attributeName="stop-color" values="#895129;#22170d;#895129" dur="7s" repeatCount="indefinite"/>
      </stop>
    </linearGradient>
    <radialGradient id="halo-brocheta-mixta" cx="50%" cy="38%" r="58%">
      <stop offset="0%" stop-color="#f4d35e" stop-opacity=".70"/>
      <stop offset="100%" stop-color="#ff8c42" stop-opacity="0"/>
    </radialGradient>
    <filter id="blur-brocheta-mixta" x="-20%" y="-20%" width="140%" height="140%">
      <feGaussianBlur stdDeviation="14"/>
    </filter>
  </defs>
  <rect width="640" height="480" rx="36" fill="url(#bg-brocheta-mixta)"/>
  <circle cx="320" cy="210" r="154" fill="url(#halo-brocheta-mixta)" filter="url(#blur-brocheta-mixta)">
    <animate attributeName="r" values="146;164;146" dur="3.6s" repeatCount="indefinite"/>
  </circle>
  <path d="M58 84c118-62 406-74 522 10" stroke="rgba(255,255,255,.10)" stroke-width="24" fill="none" stroke-linecap="round"/>
  <path d="M84 368c136 64 346 64 472 0" stroke="rgba(255,255,255,.08)" stroke-width="28" fill="none" stroke-linecap="round"/>
  <g opacity=".16">
    <circle cx="114" cy="118" r="14" fill="#fff"/>
    <circle cx="544" cy="120" r="10" fill="#fff"/>
    <circle cx="84" cy="322" r="8" fill="#fff"/>
    <circle cx="572" cy="306" r="12" fill="#fff"/>
  </g>
  
  <g transform="translate(0 0)">
    <rect x="192" y="196" width="256" height="34" rx="17" fill="rgba(255,255,255,.24)"/>
    <path d="M208 212h224" stroke="#f4d8a8" stroke-width="8" stroke-linecap="round"/>
    <circle cx="238" cy="212" r="22" fill="rgba(255,214,118,.92)"/>
    <circle cx="286" cy="212" r="22" fill="rgba(255,126,95,.92)"/>
    <circle cx="334" cy="212" r="22" fill="rgba(255,255,255,.64)"/>
    <circle cx="382" cy="212" r="22" fill="rgba(255,182,79,.94)"/>
  </g>

  <g transform="translate(48 42)">
    <rect x="0" y="0" width="236" height="36" rx="18" fill="rgba(255,255,255,.14)" stroke="rgba(255,255,255,.18)"/>
    <text x="18" y="24" fill="#eef7ff" font-size="15" font-family="Segoe UI, Arial, sans-serif" font-weight="700" letter-spacing="2">TAN NICA COMO EL RIO SAN JUAN</text>
  </g>
  <g transform="translate(48 330)">
    <text x="0" y="0" fill="#ffffff" font-size="38" font-family="Segoe UI, Arial, sans-serif" font-weight="800">Brocheta Mixta</text>
    <text x="0" y="42" fill="rgba(255,255,255,.84)" font-size="18" font-family="Segoe UI, Arial, sans-serif" font-weight="600">C$ 280.00</text>
    <text x="0" y="76" fill="rgba(255,255,255,.54)" font-size="13" font-family="Consolas, monospace" font-weight="700" letter-spacing="2">BROCHETA MIXTA</text>
  </g>
</svg>
