<svg xmlns="http://www.w3.org/2000/svg" viewBox="0 0 640 480" role="img" aria-label="Costilla de Res Premium Asadas">
  <defs>
    <linearGradient id="bg-costilla-de-res-premium-asadas" x1="0%" y1="0%" x2="100%" y2="100%">
      <stop offset="0%" stop-color="#2e160f">
        <animate attributeName="stop-color" values="#2e160f;#7a3518;#2e160f" dur="7s" repeatCount="indefinite"/>
      </stop>
      <stop offset="100%" stop-color="#7a3518">
        <animate attributeName="stop-color" values="#7a3518;#2e160f;#7a3518" dur="7s" repeatCount="indefinite"/>
      </stop>
    </linearGradient>
    <radialGradient id="halo-costilla-de-res-premium-asadas" cx="50%" cy="38%" r="58%">
      <stop offset="0%" stop-color="#ffd166" stop-opacity=".70"/>
      <stop offset="100%" stop-color="#ff7b54" stop-opacity="0"/>
    </radialGradient>
    <filter id="blur-costilla-de-res-premium-asadas" x="-20%" y="-20%" width="140%" height="140%">
      <feGaussianBlur stdDeviation="14"/>
    </filter>
  </defs>
  <rect width="640" height="480" rx="36" fill="url(#bg-costilla-de-res-premium-asadas)"/>
  <circle cx="320" cy="210" r="154" fill="url(#halo-costilla-de-res-premium-asadas)" filter="url(#blur-costilla-de-res-premium-asadas)">
    <animate attributeName="r" values="146;164;146" dur="3.6s" repeatCount="indefinite"/>
  </circle>
  <path d="M58 84c118-62 406-74 522 10" stroke="rgba(255,255,255,.10)" stroke-width="24" fill="none" stroke-linecap="round"/>
  <path d="M84 368c136 64 346 64 472 0" stroke="rgba(255,255,255,.08)" stroke-width="28" fill="none" stroke-linecap="round"/>
  <g opacity=".16">
    <circle cx="114" cy="118" r="14" fill="#fff"/>
    <circle cx="544" cy="120" r="10" fill="#fff"/>
    <circle cx="84" cy="322" r="8" fill="#fff"/>
    <circle cx="572" cy="306" r="12" fill="#fff"/>
  </g>
  
  <g transform="translate(0 4)">
    <ellipse cx="320" cy="236" rx="116" ry="58" fill="rgba(255,255,255,.15)" stroke="rgba(255,255,255,.62)" stroke-width="6"/>
    <rect x="236" y="176" width="168" height="86" rx="36" fill="rgba(255,255,255,.22)"/>
    <path d="M260 168v102M292 164v108M324 164v108M356 168v102" stroke="#fff2da" stroke-width="12" stroke-linecap="round"/>
  </g>

  <g transform="translate(48 42)">
    <rect x="0" y="0" width="236" height="36" rx="18" fill="rgba(255,255,255,.14)" stroke="rgba(255,255,255,.18)"/>
    <text x="18" y="24" fill="#eef7ff" font-size="15" font-family="Segoe UI, Arial, sans-serif" font-weight="700" letter-spacing="2">TAN NICA COMO EL RIO SAN JUAN</text>
  </g>
  <g transform="translate(48 330)">
    <text x="0" y="0" fill="#ffffff" font-size="38" font-family="Segoe UI, Arial, sans-serif" font-weight="800">Costilla de Res Premium Asadas</text>
    <text x="0" y="42" fill="rgba(255,255,255,.84)" font-size="18" font-family="Segoe UI, Arial, sans-serif" font-weight="600">C$ 300.00</text>
    <text x="0" y="76" fill="rgba(255,255,255,.54)" font-size="13" font-family="Consolas, monospace" font-weight="700" letter-spacing="2">COSTILLA DE RES PR</text>
  </g>
</svg>
