<svg xmlns="http://www.w3.org/2000/svg" viewBox="0 0 640 480" role="img" aria-label="Jugo de Naranja">
  <defs>
    <linearGradient id="bg-jugo-de-naranja" x1="0%" y1="0%" x2="100%" y2="100%">
      <stop offset="0%" stop-color="#11263c">
        <animate attributeName="stop-color" values="#11263c;#1f5c8d;#11263c" dur="7s" repeatCount="indefinite"/>
      </stop>
      <stop offset="100%" stop-color="#1f5c8d">
        <animate attributeName="stop-color" values="#1f5c8d;#11263c;#1f5c8d" dur="7s" repeatCount="indefinite"/>
      </stop>
    </linearGradient>
    <radialGradient id="halo-jugo-de-naranja" cx="50%" cy="38%" r="58%">
      <stop offset="0%" stop-color="#8fd3ff" stop-opacity=".70"/>
      <stop offset="100%" stop-color="#4cc9f0" stop-opacity="0"/>
    </radialGradient>
    <filter id="blur-jugo-de-naranja" x="-20%" y="-20%" width="140%" height="140%">
      <feGaussianBlur stdDeviation="14"/>
    </filter>
  </defs>
  <rect width="640" height="480" rx="36" fill="url(#bg-jugo-de-naranja)"/>
  <circle cx="320" cy="210" r="154" fill="url(#halo-jugo-de-naranja)" filter="url(#blur-jugo-de-naranja)">
    <animate attributeName="r" values="146;164;146" dur="3.6s" repeatCount="indefinite"/>
  </circle>
  <path d="M58 84c118-62 406-74 522 10" stroke="rgba(255,255,255,.10)" stroke-width="24" fill="none" stroke-linecap="round"/>
  <path d="M84 368c136 64 346 64 472 0" stroke="rgba(255,255,255,.08)" stroke-width="28" fill="none" stroke-linecap="round"/>
  <g opacity=".16">
    <circle cx="114" cy="118" r="14" fill="#fff"/>
    <circle cx="544" cy="120" r="10" fill="#fff"/>
    <circle cx="84" cy="322" r="8" fill="#fff"/>
    <circle cx="572" cy="306" r="12" fill="#fff"/>
  </g>
  
  <g transform="translate(0 4)">
    <rect x="262" y="146" width="116" height="136" rx="24" fill="rgba(255,255,255,.16)" stroke="rgba(255,255,255,.64)" stroke-width="6"/>
    <path d="M282 164h76l-10 92a16 16 0 0 1-16 14h-24a16 16 0 0 1-16-14z" fill="rgba(255,178,74,.50)"/>
    <circle cx="320" cy="132" r="26" fill="#ffba49"/>
    <circle cx="320" cy="132" r="16" fill="#ffdb88"/>
    <path d="M336 112c18-10 32-8 42 4-16 4-26 14-36 30" fill="none" stroke="#6ac46a" stroke-width="8" stroke-linecap="round"/>
  </g>

  <g transform="translate(48 42)">
    <rect x="0" y="0" width="236" height="36" rx="18" fill="rgba(255,255,255,.14)" stroke="rgba(255,255,255,.18)"/>
    <text x="18" y="24" fill="#eef7ff" font-size="15" font-family="Segoe UI, Arial, sans-serif" font-weight="700" letter-spacing="2">BEBIDAS</text>
  </g>
  <g transform="translate(48 330)">
    <text x="0" y="0" fill="#ffffff" font-size="38" font-family="Segoe UI, Arial, sans-serif" font-weight="800">Jugo de Naranja</text>
    <text x="0" y="42" fill="rgba(255,255,255,.84)" font-size="18" font-family="Segoe UI, Arial, sans-serif" font-weight="600">C$ 50.00</text>
    <text x="0" y="76" fill="rgba(255,255,255,.54)" font-size="13" font-family="Consolas, monospace" font-weight="700" letter-spacing="2">JUGO DE NARANJA</text>
  </g>
</svg>
