<svg xmlns="http://www.w3.org/2000/svg" viewBox="0 0 640 480" role="img" aria-label="Queso">
  <defs>
    <linearGradient id="bg-queso" x1="0%" y1="0%" x2="100%" y2="100%">
      <stop offset="0%" stop-color="#1d2232">
        <animate attributeName="stop-color" values="#1d2232;#40577a;#1d2232" dur="7s" repeatCount="indefinite"/>
      </stop>
      <stop offset="100%" stop-color="#40577a">
        <animate attributeName="stop-color" values="#40577a;#1d2232;#40577a" dur="7s" repeatCount="indefinite"/>
      </stop>
    </linearGradient>
    <radialGradient id="halo-queso" cx="50%" cy="38%" r="58%">
      <stop offset="0%" stop-color="#b9d6f2" stop-opacity=".70"/>
      <stop offset="100%" stop-color="#4ea8de" stop-opacity="0"/>
    </radialGradient>
    <filter id="blur-queso" x="-20%" y="-20%" width="140%" height="140%">
      <feGaussianBlur stdDeviation="14"/>
    </filter>
  </defs>
  <rect width="640" height="480" rx="36" fill="url(#bg-queso)"/>
  <circle cx="320" cy="210" r="154" fill="url(#halo-queso)" filter="url(#blur-queso)">
    <animate attributeName="r" values="146;164;146" dur="3.6s" repeatCount="indefinite"/>
  </circle>
  <path d="M58 84c118-62 406-74 522 10" stroke="rgba(255,255,255,.10)" stroke-width="24" fill="none" stroke-linecap="round"/>
  <path d="M84 368c136 64 346 64 472 0" stroke="rgba(255,255,255,.08)" stroke-width="28" fill="none" stroke-linecap="round"/>
  <g opacity=".16">
    <circle cx="114" cy="118" r="14" fill="#fff"/>
    <circle cx="544" cy="120" r="10" fill="#fff"/>
    <circle cx="84" cy="322" r="8" fill="#fff"/>
    <circle cx="572" cy="306" r="12" fill="#fff"/>
  </g>
  
  <g transform="translate(0 8)">
    <circle cx="320" cy="214" r="84" fill="rgba(255,255,255,.16)" stroke="rgba(255,255,255,.62)" stroke-width="6"/>
    <path d="M274 178l98 28-82 56z" fill="#fff1a6"/>
    <circle cx="318" cy="212" r="6" fill="#ffd54f"/>
    <circle cx="336" cy="224" r="5" fill="#ffd54f"/>
    <circle cx="300" cy="230" r="5" fill="#ffd54f"/>
  </g>

  <g transform="translate(48 42)">
    <rect x="0" y="0" width="236" height="36" rx="18" fill="rgba(255,255,255,.14)" stroke="rgba(255,255,255,.18)"/>
    <text x="18" y="24" fill="#eef7ff" font-size="15" font-family="Segoe UI, Arial, sans-serif" font-weight="700" letter-spacing="2">EXTRAS</text>
  </g>
  <g transform="translate(48 330)">
    <text x="0" y="0" fill="#ffffff" font-size="38" font-family="Segoe UI, Arial, sans-serif" font-weight="800">Queso</text>
    <text x="0" y="42" fill="rgba(255,255,255,.84)" font-size="18" font-family="Segoe UI, Arial, sans-serif" font-weight="600">C$ 50.00</text>
    <text x="0" y="76" fill="rgba(255,255,255,.54)" font-size="13" font-family="Consolas, monospace" font-weight="700" letter-spacing="2">QUESO</text>
  </g>
</svg>
