<svg xmlns="http://www.w3.org/2000/svg" viewBox="0 0 640 480" role="img" aria-label="Salchipapa">
  <defs>
    <linearGradient id="bg-salchipapa" x1="0%" y1="0%" x2="100%" y2="100%">
      <stop offset="0%" stop-color="#2c220f">
        <animate attributeName="stop-color" values="#2c220f;#8d6a1f;#2c220f" dur="7s" repeatCount="indefinite"/>
      </stop>
      <stop offset="100%" stop-color="#8d6a1f">
        <animate attributeName="stop-color" values="#8d6a1f;#2c220f;#8d6a1f" dur="7s" repeatCount="indefinite"/>
      </stop>
    </linearGradient>
    <radialGradient id="halo-salchipapa" cx="50%" cy="38%" r="58%">
      <stop offset="0%" stop-color="#ffe28a" stop-opacity=".70"/>
      <stop offset="100%" stop-color="#ffb703" stop-opacity="0"/>
    </radialGradient>
    <filter id="blur-salchipapa" x="-20%" y="-20%" width="140%" height="140%">
      <feGaussianBlur stdDeviation="14"/>
    </filter>
  </defs>
  <rect width="640" height="480" rx="36" fill="url(#bg-salchipapa)"/>
  <circle cx="320" cy="210" r="154" fill="url(#halo-salchipapa)" filter="url(#blur-salchipapa)">
    <animate attributeName="r" values="146;164;146" dur="3.6s" repeatCount="indefinite"/>
  </circle>
  <path d="M58 84c118-62 406-74 522 10" stroke="rgba(255,255,255,.10)" stroke-width="24" fill="none" stroke-linecap="round"/>
  <path d="M84 368c136 64 346 64 472 0" stroke="rgba(255,255,255,.08)" stroke-width="28" fill="none" stroke-linecap="round"/>
  <g opacity=".16">
    <circle cx="114" cy="118" r="14" fill="#fff"/>
    <circle cx="544" cy="120" r="10" fill="#fff"/>
    <circle cx="84" cy="322" r="8" fill="#fff"/>
    <circle cx="572" cy="306" r="12" fill="#fff"/>
  </g>
  
  <g transform="translate(0 8)">
    <ellipse cx="320" cy="238" rx="108" ry="54" fill="rgba(255,255,255,.16)" stroke="rgba(255,255,255,.60)" stroke-width="6"/>
    <path d="M272 184h96l-8 76h-80z" fill="rgba(255,111,61,.88)"/>
    <rect x="282" y="150" width="12" height="72" rx="6" fill="#ffd166" transform="rotate(-8 288 186)"/>
    <rect x="300" y="144" width="12" height="82" rx="6" fill="#ffe08a" transform="rotate(-2 306 185)"/>
    <rect x="320" y="148" width="12" height="78" rx="6" fill="#ffd166" transform="rotate(4 326 187)"/>
    <rect x="338" y="152" width="12" height="72" rx="6" fill="#ffe08a" transform="rotate(10 344 188)"/>
  </g>

  <g transform="translate(48 42)">
    <rect x="0" y="0" width="236" height="36" rx="18" fill="rgba(255,255,255,.14)" stroke="rgba(255,255,255,.18)"/>
    <text x="18" y="24" fill="#eef7ff" font-size="15" font-family="Segoe UI, Arial, sans-serif" font-weight="700" letter-spacing="2">TOSTONES Y ACOMPANANTES</text>
  </g>
  <g transform="translate(48 330)">
    <text x="0" y="0" fill="#ffffff" font-size="38" font-family="Segoe UI, Arial, sans-serif" font-weight="800">Salchipapa</text>
    <text x="0" y="42" fill="rgba(255,255,255,.84)" font-size="18" font-family="Segoe UI, Arial, sans-serif" font-weight="600">C$ 160.00</text>
    <text x="0" y="76" fill="rgba(255,255,255,.54)" font-size="13" font-family="Consolas, monospace" font-weight="700" letter-spacing="2">SALCHIPAPA</text>
  </g>
</svg>
