<svg xmlns="http://www.w3.org/2000/svg" viewBox="0 0 640 480" role="img" aria-label="Tajadas, Tostones o Maduro">
  <defs>
    <linearGradient id="bg-tajadas-tostones-o-maduro" x1="0%" y1="0%" x2="100%" y2="100%">
      <stop offset="0%" stop-color="#1d2232">
        <animate attributeName="stop-color" values="#1d2232;#40577a;#1d2232" dur="7s" repeatCount="indefinite"/>
      </stop>
      <stop offset="100%" stop-color="#40577a">
        <animate attributeName="stop-color" values="#40577a;#1d2232;#40577a" dur="7s" repeatCount="indefinite"/>
      </stop>
    </linearGradient>
    <radialGradient id="halo-tajadas-tostones-o-maduro" cx="50%" cy="38%" r="58%">
      <stop offset="0%" stop-color="#b9d6f2" stop-opacity=".70"/>
      <stop offset="100%" stop-color="#4ea8de" stop-opacity="0"/>
    </radialGradient>
    <filter id="blur-tajadas-tostones-o-maduro" x="-20%" y="-20%" width="140%" height="140%">
      <feGaussianBlur stdDeviation="14"/>
    </filter>
  </defs>
  <rect width="640" height="480" rx="36" fill="url(#bg-tajadas-tostones-o-maduro)"/>
  <circle cx="320" cy="210" r="154" fill="url(#halo-tajadas-tostones-o-maduro)" filter="url(#blur-tajadas-tostones-o-maduro)">
    <animate attributeName="r" values="146;164;146" dur="3.6s" repeatCount="indefinite"/>
  </circle>
  <path d="M58 84c118-62 406-74 522 10" stroke="rgba(255,255,255,.10)" stroke-width="24" fill="none" stroke-linecap="round"/>
  <path d="M84 368c136 64 346 64 472 0" stroke="rgba(255,255,255,.08)" stroke-width="28" fill="none" stroke-linecap="round"/>
  <g opacity=".16">
    <circle cx="114" cy="118" r="14" fill="#fff"/>
    <circle cx="544" cy="120" r="10" fill="#fff"/>
    <circle cx="84" cy="322" r="8" fill="#fff"/>
    <circle cx="572" cy="306" r="12" fill="#fff"/>
  </g>
  
  <g transform="translate(0 8)">
    <circle cx="320" cy="214" r="84" fill="rgba(255,255,255,.16)" stroke="rgba(255,255,255,.62)" stroke-width="6"/>
    <circle cx="288" cy="208" r="22" fill="rgba(255,255,255,.62)"/>
    <circle cx="342" cy="194" r="18" fill="rgba(255,255,255,.82)"/>
    <circle cx="336" cy="240" r="20" fill="rgba(78,168,222,.88)"/>
    <path d="M320 112c16 12 24 28 24 44s-8 30-24 42c-16-12-24-26-24-42s8-32 24-44z" fill="#bfe9ff">
      <animateTransform attributeName="transform" type="translate" dur="1.8s" repeatCount="indefinite" values="0 0;0 -8;0 0"/>
    </path>
  </g>

  <g transform="translate(48 42)">
    <rect x="0" y="0" width="236" height="36" rx="18" fill="rgba(255,255,255,.14)" stroke="rgba(255,255,255,.18)"/>
    <text x="18" y="24" fill="#eef7ff" font-size="15" font-family="Segoe UI, Arial, sans-serif" font-weight="700" letter-spacing="2">EXTRAS</text>
  </g>
  <g transform="translate(48 330)">
    <text x="0" y="0" fill="#ffffff" font-size="38" font-family="Segoe UI, Arial, sans-serif" font-weight="800">Tajadas, Tostones o Maduro</text>
    <text x="0" y="42" fill="rgba(255,255,255,.84)" font-size="18" font-family="Segoe UI, Arial, sans-serif" font-weight="600">C$ 50.00</text>
    <text x="0" y="76" fill="rgba(255,255,255,.54)" font-size="13" font-family="Consolas, monospace" font-weight="700" letter-spacing="2">TAJADAS TOSTONES O</text>
  </g>
</svg>
