<svg xmlns="http://www.w3.org/2000/svg" viewBox="0 0 640 480" role="img" aria-label="Te Frio de Limon">
  <defs>
    <linearGradient id="bg-te-frio-de-limon" x1="0%" y1="0%" x2="100%" y2="100%">
      <stop offset="0%" stop-color="#11263c">
        <animate attributeName="stop-color" values="#11263c;#1f5c8d;#11263c" dur="7s" repeatCount="indefinite"/>
      </stop>
      <stop offset="100%" stop-color="#1f5c8d">
        <animate attributeName="stop-color" values="#1f5c8d;#11263c;#1f5c8d" dur="7s" repeatCount="indefinite"/>
      </stop>
    </linearGradient>
    <radialGradient id="halo-te-frio-de-limon" cx="50%" cy="38%" r="58%">
      <stop offset="0%" stop-color="#8fd3ff" stop-opacity=".70"/>
      <stop offset="100%" stop-color="#4cc9f0" stop-opacity="0"/>
    </radialGradient>
    <filter id="blur-te-frio-de-limon" x="-20%" y="-20%" width="140%" height="140%">
      <feGaussianBlur stdDeviation="14"/>
    </filter>
  </defs>
  <rect width="640" height="480" rx="36" fill="url(#bg-te-frio-de-limon)"/>
  <circle cx="320" cy="210" r="154" fill="url(#halo-te-frio-de-limon)" filter="url(#blur-te-frio-de-limon)">
    <animate attributeName="r" values="146;164;146" dur="3.6s" repeatCount="indefinite"/>
  </circle>
  <path d="M58 84c118-62 406-74 522 10" stroke="rgba(255,255,255,.10)" stroke-width="24" fill="none" stroke-linecap="round"/>
  <path d="M84 368c136 64 346 64 472 0" stroke="rgba(255,255,255,.08)" stroke-width="28" fill="none" stroke-linecap="round"/>
  <g opacity=".16">
    <circle cx="114" cy="118" r="14" fill="#fff"/>
    <circle cx="544" cy="120" r="10" fill="#fff"/>
    <circle cx="84" cy="322" r="8" fill="#fff"/>
    <circle cx="572" cy="306" r="12" fill="#fff"/>
  </g>
  
  <g transform="translate(0 4)">
    <rect x="266" y="138" width="108" height="138" rx="26" fill="rgba(255,255,255,.18)" stroke="rgba(255,255,255,.66)" stroke-width="6"/>
    <path d="M286 154h68l-10 102a12 12 0 0 1-12 10h-24a12 12 0 0 1-12-10z" fill="rgba(255,255,255,.28)"/>
    <path d="M320 98c22 16 22 34 0 56" fill="none" stroke="#d8f3ff" stroke-width="8" stroke-linecap="round">
      <animate attributeName="d" dur="2.8s" repeatCount="indefinite"
        values="M320 98c22 16 22 34 0 56;M320 98c10 20 10 36 0 56;M320 98c22 16 22 34 0 56"/>
    </path>
  </g>

  <g transform="translate(48 42)">
    <rect x="0" y="0" width="236" height="36" rx="18" fill="rgba(255,255,255,.14)" stroke="rgba(255,255,255,.18)"/>
    <text x="18" y="24" fill="#eef7ff" font-size="15" font-family="Segoe UI, Arial, sans-serif" font-weight="700" letter-spacing="2">BEBIDAS</text>
  </g>
  <g transform="translate(48 330)">
    <text x="0" y="0" fill="#ffffff" font-size="38" font-family="Segoe UI, Arial, sans-serif" font-weight="800">Te Frio de Limon</text>
    <text x="0" y="42" fill="rgba(255,255,255,.84)" font-size="18" font-family="Segoe UI, Arial, sans-serif" font-weight="600">C$ 50.00</text>
    <text x="0" y="76" fill="rgba(255,255,255,.54)" font-size="13" font-family="Consolas, monospace" font-weight="700" letter-spacing="2">TE FRIO DE LIMON</text>
  </g>
</svg>
