<svg xmlns="http://www.w3.org/2000/svg" viewBox="0 0 640 480" role="img" aria-label="Trozos de Carne Res, Pollo o Cerdo">
  <defs>
    <linearGradient id="bg-trozos-de-carne-res-pollo-o-cerdo" x1="0%" y1="0%" x2="100%" y2="100%">
      <stop offset="0%" stop-color="#23161e">
        <animate attributeName="stop-color" values="#23161e;#5f264a;#23161e" dur="7s" repeatCount="indefinite"/>
      </stop>
      <stop offset="100%" stop-color="#5f264a">
        <animate attributeName="stop-color" values="#5f264a;#23161e;#5f264a" dur="7s" repeatCount="indefinite"/>
      </stop>
    </linearGradient>
    <radialGradient id="halo-trozos-de-carne-res-pollo-o-cerdo" cx="50%" cy="38%" r="58%">
      <stop offset="0%" stop-color="#f4b6c2" stop-opacity=".70"/>
      <stop offset="100%" stop-color="#ff6f91" stop-opacity="0"/>
    </radialGradient>
    <filter id="blur-trozos-de-carne-res-pollo-o-cerdo" x="-20%" y="-20%" width="140%" height="140%">
      <feGaussianBlur stdDeviation="14"/>
    </filter>
  </defs>
  <rect width="640" height="480" rx="36" fill="url(#bg-trozos-de-carne-res-pollo-o-cerdo)"/>
  <circle cx="320" cy="210" r="154" fill="url(#halo-trozos-de-carne-res-pollo-o-cerdo)" filter="url(#blur-trozos-de-carne-res-pollo-o-cerdo)">
    <animate attributeName="r" values="146;164;146" dur="3.6s" repeatCount="indefinite"/>
  </circle>
  <path d="M58 84c118-62 406-74 522 10" stroke="rgba(255,255,255,.10)" stroke-width="24" fill="none" stroke-linecap="round"/>
  <path d="M84 368c136 64 346 64 472 0" stroke="rgba(255,255,255,.08)" stroke-width="28" fill="none" stroke-linecap="round"/>
  <g opacity=".16">
    <circle cx="114" cy="118" r="14" fill="#fff"/>
    <circle cx="544" cy="120" r="10" fill="#fff"/>
    <circle cx="84" cy="322" r="8" fill="#fff"/>
    <circle cx="572" cy="306" r="12" fill="#fff"/>
  </g>
  
  <g transform="translate(0 6)">
    <ellipse cx="320" cy="232" rx="126" ry="68" fill="rgba(255,255,255,.15)" stroke="rgba(255,255,255,.62)" stroke-width="6"/>
    <rect x="248" y="184" width="42" height="42" rx="12" fill="rgba(255,196,112,.92)" transform="rotate(-10 269 205)"/>
    <rect x="300" y="198" width="42" height="42" rx="12" fill="rgba(255,111,145,.92)" transform="rotate(8 321 219)"/>
    <rect x="352" y="184" width="42" height="42" rx="12" fill="rgba(255,255,255,.58)" transform="rotate(14 373 205)"/>
    <rect x="278" y="238" width="42" height="42" rx="12" fill="rgba(255,170,116,.92)" transform="rotate(-8 299 259)"/>
    <rect x="332" y="238" width="42" height="42" rx="12" fill="rgba(255,214,118,.90)" transform="rotate(10 353 259)"/>
  </g>

  <g transform="translate(48 42)">
    <rect x="0" y="0" width="236" height="36" rx="18" fill="rgba(255,255,255,.14)" stroke="rgba(255,255,255,.18)"/>
    <text x="18" y="24" fill="#eef7ff" font-size="15" font-family="Segoe UI, Arial, sans-serif" font-weight="700" letter-spacing="2">COMPARTIENDO SABE MEJOR</text>
  </g>
  <g transform="translate(48 330)">
    <text x="0" y="0" fill="#ffffff" font-size="38" font-family="Segoe UI, Arial, sans-serif" font-weight="800">Trozos de Carne Res, Pollo o Cerdo</text>
    <text x="0" y="42" fill="rgba(255,255,255,.84)" font-size="18" font-family="Segoe UI, Arial, sans-serif" font-weight="600">C$ 250.00</text>
    <text x="0" y="76" fill="rgba(255,255,255,.54)" font-size="13" font-family="Consolas, monospace" font-weight="700" letter-spacing="2">TROZOS DE CARNE RE</text>
  </g>
</svg>
